# xmcd
#
# Track frame offsets:
#	150
#	19860
#	42645
#	61247
#	84735
#	104597
#	125630
#
# Disc length: 1947 seconds
#
# Revision: 1
# Processed by: cddbd v1.5.1PL0 Copyright (c) Steve Scherf et al.
# Submitted via: CDex 1.50Beta5
#
DISCID=61079907
DTITLE=中森明菜 - 中森明菜ベストアルバム
DYEAR=1900
DGENRE=Rock
TTITLE0=飾りじゃないのよ涙は
TTITLE1=セカンド・ラブ
TTITLE2=難破船
TTITLE3=スローモーション
TTITLE4=ミ・アモーレ
TTITLE5=DESIRE-情熱-
TTITLE6=TNANGO NOIR
EXTD=
EXTT0=
EXTT1=
EXTT2=
EXTT3=
EXTT4=
EXTT5=
EXTT6=
PLAYORDER=
